<svg width="43" height="43" viewBox="0 0 43 43" fill="none" xmlns="http://www.w3.org/2000/svg">
<path d="M17.2126 31.2562C16.9793 31.2562 16.7605 31.2194 16.5563 31.1459C16.3522 31.0736 16.1626 30.9499 15.9876 30.7749L8.46259 23.2499C8.14176 22.9291 7.98834 22.5132 8.00234 22.0022C8.01751 21.4924 8.18551 21.077 8.50634 20.7562C8.82718 20.4354 9.23551 20.2749 9.73134 20.2749C10.2272 20.2749 10.6355 20.4354 10.9563 20.7562L17.2126 27.0124L32.0438 12.1812C32.3647 11.8604 32.7806 11.7 33.2916 11.7C33.8014 11.7 34.2168 11.8604 34.5376 12.1812C34.8584 12.502 35.0188 12.9174 35.0188 13.4272C35.0188 13.9382 34.8584 14.3541 34.5376 14.675L18.4376 30.7749C18.2626 30.9499 18.073 31.0736 17.8688 31.1459C17.6647 31.2194 17.4459 31.2562 17.2126 31.2562Z" fill="#AF303A"/>
</svg>
