<svg width="43" height="29" viewBox="0 0 43 29" fill="none" xmlns="http://www.w3.org/2000/svg">
<path d="M7.69956 6.21422C7.69956 4.21229 8.07492 2.27652 8.77685 0.438596C8.87501 0.181553 8.58105 -0.0575424 8.3573 0.10362C3.39382 3.67912 0.270208 8.60227 0.10745 14.0525C0.105958 14.1025 0.0870223 14.1505 0.0536554 14.1879C0.0190947 14.2266 0 14.2765 0 14.3283V27.7878C0 27.9393 0.123313 28.0622 0.275423 28.0622H17.6463C17.7985 28.0622 17.9218 27.9393 17.9218 27.7878V10.4568C17.9218 10.3053 17.7985 10.1825 17.6463 10.1825H8.41657C8.29065 10.1825 8.18052 10.0975 8.15102 9.97558C7.85525 8.75449 7.69956 7.4984 7.69956 6.21422Z" fill="#5271FF"/>
<path d="M33.2629 10.2333C33.1378 10.2333 33.0281 10.1494 32.9979 10.0284C32.6846 8.77503 32.5212 7.48427 32.5212 6.16574C32.5212 4.16359 32.8986 2.22581 33.6011 0.387299C33.6993 0.130275 33.4053 -0.108807 33.1816 0.0523492C28.1267 3.69327 24.98 8.72837 24.9244 14.2975L24.9231 14.2988L24.9218 14.3V14.3695C24.9218 14.3983 24.9218 14.4245 24.9218 14.4534C24.9218 14.4822 24.9218 14.511 24.9218 14.5398V27.8387C24.9218 27.9902 25.0451 28.1131 25.1972 28.1131H42.5681C42.7203 28.1131 42.8436 27.9902 42.8436 27.8387V10.5077C42.8436 10.3562 42.7203 10.2334 42.5681 10.2334L33.2629 10.2333Z" fill="#5271FF"/>
</svg>
