<svg width="152" height="42" viewBox="0 0 152 42" fill="none" xmlns="http://www.w3.org/2000/svg">
<path d="M6.91749 7.46C6.39616 7.644 5.46083 7.88933 4.11149 8.196C2.76216 8.472 1.70416 8.656 0.937492 8.748L0.431492 5.528C2.08749 5.19067 3.80483 4.59266 5.58349 3.734C7.39283 2.84467 8.86483 1.92467 9.99949 0.973998H10.0455L13.6795 1.48V26.78L18.9235 27.286V30H1.39749V27.286L6.91749 26.826V7.46ZM27.7099 22.272C28.8445 22.272 29.8105 22.8547 30.6079 24.02C31.4359 25.1547 31.8499 26.596 31.8499 28.344C31.8499 30.184 31.5279 31.9933 30.8839 33.772C30.2705 35.5507 29.4885 37.084 28.5379 38.372C27.6179 39.6907 26.7285 40.58 25.8699 41.04H25.8239L23.8459 39.706V39.016C24.5512 38.4333 25.1952 37.314 25.7779 35.658C26.3605 34.002 26.6519 32.4533 26.6519 31.012C26.6519 30.552 26.5599 30.1687 26.3759 29.862C26.1919 29.5553 25.9005 29.2027 25.5019 28.804C25.0112 28.2827 24.6432 27.8073 24.3979 27.378C24.1525 26.918 24.0299 26.2893 24.0299 25.492C24.0299 24.5107 24.3519 23.7287 24.9959 23.146C25.6399 22.5633 26.4525 22.272 27.4339 22.272H27.7099ZM49.8351 30.46C45.9098 30.46 42.9045 29.1567 40.8191 26.55C38.7645 23.9127 37.7371 20.34 37.7371 15.832C37.7371 12.6427 38.3351 9.944 39.5311 7.736C40.7271 5.49733 42.3065 3.826 44.2691 2.722C46.2625 1.58733 48.4705 1.02 50.8931 1.02C54.8491 1.02 57.8238 2.27733 59.8171 4.792C61.8105 7.276 62.8071 10.8027 62.8071 15.372C62.8071 18.5307 62.2245 21.26 61.0591 23.56C59.9245 25.8293 58.3758 27.5467 56.4131 28.712C54.4505 29.8773 52.2578 30.46 49.8351 30.46ZM50.2951 27.7C52.2271 27.7 53.6378 26.7187 54.5271 24.756C55.4471 22.7627 55.9071 19.8033 55.9071 15.878C55.9071 11.7073 55.4778 8.656 54.6191 6.724C53.7911 4.76133 52.3651 3.78 50.3411 3.78C46.5385 3.78 44.6371 7.62866 44.6371 15.326C44.6371 19.4353 45.0818 22.5327 45.9711 24.618C46.8911 26.6727 48.3325 27.7 50.2951 27.7ZM80.0676 30.46C76.1422 30.46 73.1369 29.1567 71.0516 26.55C68.9969 23.9127 67.9696 20.34 67.9696 15.832C67.9696 12.6427 68.5676 9.944 69.7636 7.736C70.9596 5.49733 72.5389 3.826 74.5016 2.722C76.4949 1.58733 78.7029 1.02 81.1256 1.02C85.0816 1.02 88.0562 2.27733 90.0496 4.792C92.0429 7.276 93.0396 10.8027 93.0396 15.372C93.0396 18.5307 92.4569 21.26 91.2916 23.56C90.1569 25.8293 88.6082 27.5467 86.6456 28.712C84.6829 29.8773 82.4902 30.46 80.0676 30.46ZM80.5276 27.7C82.4596 27.7 83.8702 26.7187 84.7596 24.756C85.6796 22.7627 86.1396 19.8033 86.1396 15.878C86.1396 11.7073 85.7102 8.656 84.8516 6.724C84.0236 4.76133 82.5976 3.78 80.5736 3.78C76.7709 3.78 74.8696 7.62866 74.8696 15.326C74.8696 19.4353 75.3142 22.5327 76.2036 24.618C77.1236 26.6727 78.5649 27.7 80.5276 27.7ZM110.3 30.46C106.375 30.46 103.369 29.1567 101.284 26.55C99.2293 23.9127 98.202 20.34 98.202 15.832C98.202 12.6427 98.8 9.944 99.996 7.736C101.192 5.49733 102.771 3.826 104.734 2.722C106.727 1.58733 108.935 1.02 111.358 1.02C115.314 1.02 118.289 2.27733 120.282 4.792C122.275 7.276 123.272 10.8027 123.272 15.372C123.272 18.5307 122.689 21.26 121.524 23.56C120.389 25.8293 118.841 27.5467 116.878 28.712C114.915 29.8773 112.723 30.46 110.3 30.46ZM110.76 27.7C112.692 27.7 114.103 26.7187 114.992 24.756C115.912 22.7627 116.372 19.8033 116.372 15.878C116.372 11.7073 115.943 8.656 115.084 6.724C114.256 4.76133 112.83 3.78 110.806 3.78C107.003 3.78 105.102 7.62866 105.102 15.326C105.102 19.4353 105.547 22.5327 106.436 24.618C107.356 26.6727 108.797 27.7 110.76 27.7ZM139.06 13.394L138.922 9.714V4.654H143.2V9.714L143.016 13.394L146.558 13.118H151.572V17.442H146.558L143.016 17.304L143.2 20.892V26.228H138.922V20.892L139.06 17.304L134.874 17.442H130.55V13.118H134.874L139.06 13.394Z" fill="#5271FF"/>
</svg>
