<svg width="114" height="31" viewBox="0 0 114 31" fill="none" xmlns="http://www.w3.org/2000/svg">
<path d="M0.883742 27.516C5.14641 25.0013 8.64241 22.226 11.3717 19.19C14.1011 16.154 15.4657 13.2253 15.4657 10.404C15.4657 8.90133 14.9904 7.70533 14.0397 6.816C13.1197 5.896 11.8164 5.436 10.1297 5.436C8.53508 5.436 7.18574 5.74267 6.08174 6.356C5.00841 6.93867 3.95041 7.70533 2.90774 8.656L1.15974 6.126C1.77308 5.35933 2.64708 4.57733 3.78174 3.78C4.94708 2.98267 6.29641 2.32333 7.82974 1.802C9.36308 1.25 10.9117 0.973998 12.4757 0.973998C14.7144 0.973998 16.5851 1.35733 18.0877 2.124C19.6211 2.89067 20.7557 3.90267 21.4917 5.16C22.2277 6.41733 22.5957 7.81267 22.5957 9.346C22.5957 12.29 21.1851 15.2493 18.3637 18.224C15.5424 21.1987 11.9544 23.928 7.59974 26.412L20.9397 25.17L22.6877 21.306L25.5857 21.904L24.2517 30H1.84974L0.883742 27.516ZM41.6613 30.46C37.736 30.46 34.7306 29.1567 32.6453 26.55C30.5906 23.9127 29.5633 20.34 29.5633 15.832C29.5633 12.6427 30.1613 9.944 31.3573 7.736C32.5533 5.49733 34.1326 3.826 36.0953 2.722C38.0886 1.58733 40.2966 1.02 42.7193 1.02C46.6753 1.02 49.65 2.27733 51.6433 4.792C53.6366 7.276 54.6333 10.8027 54.6333 15.372C54.6333 18.5307 54.0506 21.26 52.8853 23.56C51.7506 25.8293 50.202 27.5467 48.2393 28.712C46.2766 29.8773 44.084 30.46 41.6613 30.46ZM42.1213 27.7C44.0533 27.7 45.464 26.7187 46.3533 24.756C47.2733 22.7627 47.7333 19.8033 47.7333 15.878C47.7333 11.7073 47.304 8.656 46.4453 6.724C45.6173 4.76133 44.1913 3.78 42.1673 3.78C38.3646 3.78 36.4633 7.62866 36.4633 15.326C36.4633 19.4353 36.908 22.5327 37.7973 24.618C38.7173 26.6727 40.1586 27.7 42.1213 27.7ZM71.8937 30.46C67.9684 30.46 64.9631 29.1567 62.8777 26.55C60.8231 23.9127 59.7957 20.34 59.7957 15.832C59.7957 12.6427 60.3937 9.944 61.5897 7.736C62.7857 5.49733 64.3651 3.826 66.3277 2.722C68.3211 1.58733 70.5291 1.02 72.9517 1.02C76.9077 1.02 79.8824 2.27733 81.8757 4.792C83.8691 7.276 84.8657 10.8027 84.8657 15.372C84.8657 18.5307 84.2831 21.26 83.1177 23.56C81.9831 25.8293 80.4344 27.5467 78.4717 28.712C76.5091 29.8773 74.3164 30.46 71.8937 30.46ZM72.3537 27.7C74.2857 27.7 75.6964 26.7187 76.5857 24.756C77.5057 22.7627 77.9657 19.8033 77.9657 15.878C77.9657 11.7073 77.5364 8.656 76.6777 6.724C75.8497 4.76133 74.4237 3.78 72.3997 3.78C68.5971 3.78 66.6957 7.62866 66.6957 15.326C66.6957 19.4353 67.1404 22.5327 68.0297 24.618C68.9497 26.6727 70.3911 27.7 72.3537 27.7ZM100.654 13.394L100.516 9.714V4.654H104.794V9.714L104.61 13.394L108.152 13.118H113.166V17.442H108.152L104.61 17.304L104.794 20.892V26.228H100.516V20.892L100.654 17.304L96.4681 17.442H92.1441V13.118H96.4681L100.654 13.394Z" fill="#5271FF"/>
</svg>
