<svg width="53" height="36" viewBox="0 0 53 36" fill="none" xmlns="http://www.w3.org/2000/svg">
<path d="M0.0435704 26.628C0.0435704 24.8493 0.626237 23.224 1.79157 21.752C2.9569 20.2493 4.67424 19.0073 6.94357 18.026C5.22624 16.922 3.89224 15.6953 2.94157 14.346C1.9909 12.966 1.51557 11.264 1.51557 9.24C1.51557 7.4 2.00624 5.82067 2.98757 4.502C3.99957 3.15267 5.3489 2.12533 7.03557 1.42C8.72224 0.714666 10.5776 0.361999 12.6016 0.361999C14.7482 0.361999 16.6036 0.683999 18.1676 1.328C19.7316 1.972 20.9276 2.87667 21.7556 4.042C22.5836 5.20733 22.9976 6.54133 22.9976 8.044C22.9976 9.73067 22.4762 11.2793 21.4336 12.69C20.3909 14.07 18.8882 15.2507 16.9256 16.232C19.3482 17.612 21.2496 19.0533 22.6296 20.556C24.0096 22.0587 24.6996 23.914 24.6996 26.122C24.6996 28.0233 24.1476 29.6793 23.0436 31.09C21.9702 32.5007 20.4676 33.5893 18.5356 34.356C16.6342 35.1227 14.4876 35.506 12.0956 35.506C8.72224 35.506 5.87024 34.7853 3.53957 33.344C1.2089 31.872 0.0435704 29.6333 0.0435704 26.628ZM7.26557 7.814C7.26557 8.826 7.57224 9.746 8.18557 10.574C8.82957 11.3713 9.61157 12.0767 10.5316 12.69C11.4822 13.2727 12.7856 14.0087 14.4416 14.898C15.5762 14.1927 16.4502 13.334 17.0636 12.322C17.7076 11.31 18.0296 10.2213 18.0296 9.056C18.0296 7.124 17.5389 5.63667 16.5576 4.594C15.6069 3.55133 14.2729 3.03 12.5556 3.03C11.0836 3.03 9.82624 3.45933 8.78357 4.318C7.77157 5.146 7.26557 6.31133 7.26557 7.814ZM18.1676 27.318C18.1676 26.2753 17.8609 25.3707 17.2476 24.604C16.6342 23.8067 15.8676 23.1167 14.9476 22.534C14.0582 21.9513 12.8009 21.2307 11.1756 20.372C10.3169 19.9427 9.6729 19.6053 9.24357 19.36C8.1089 20.096 7.1889 21.0007 6.48357 22.074C5.8089 23.1473 5.47157 24.328 5.47157 25.616C5.47157 27.732 6.06957 29.434 7.26557 30.722C8.49224 32.01 10.1636 32.654 12.2796 32.654C13.2916 32.654 14.2422 32.4393 15.1316 32.01C16.0516 31.55 16.7876 30.9213 17.3396 30.124C17.8916 29.3267 18.1676 28.3913 18.1676 27.318ZM40.2303 18.394L40.0923 14.714V9.654H44.3703V14.714L44.1863 18.394L47.7283 18.118H52.7423V22.442H47.7283L44.1863 22.304L44.3703 25.892V31.228H40.0923V25.892L40.2303 22.304L36.0443 22.442H31.7203V18.118H36.0443L40.2303 18.394Z" fill="#5271FF"/>
</svg>
