<svg width="32" height="33" viewBox="0 0 32 33" fill="none" xmlns="http://www.w3.org/2000/svg">
<g clip-path="url(#clip0_253_781)">
<path d="M32 16.1133C32 7.27678 24.8365 0.113281 16 0.113281C7.1635 0.113281 0 7.27678 0 16.1133C0 24.0993 5.851 30.7187 13.5 31.9189V20.7383H9.4375V16.1133H13.5V12.5883C13.5 8.57828 15.8888 6.36328 19.5435 6.36328C21.294 6.36328 23.125 6.67578 23.125 6.67578V10.6133H21.1075C19.1199 10.6133 18.5 11.8467 18.5 13.112V16.1133H22.9375L22.2281 20.7383H18.5V31.9189C26.149 30.7187 32 24.0994 32 16.1133Z" fill="#1877F2"/>
<path d="M22.2281 20.7383L22.9375 16.1133H18.5V13.112C18.5 11.8465 19.1199 10.6133 21.1075 10.6133H23.125V6.67578C23.125 6.67578 21.294 6.36328 19.5434 6.36328C15.8888 6.36328 13.5 8.57828 13.5 12.5883V16.1133H9.4375V20.7383H13.5V31.9189C14.327 32.0485 15.1629 32.1135 16 32.1133C16.8371 32.1135 17.673 32.0485 18.5 31.9189V20.7383H22.2281Z" fill="white"/>
</g>
<defs>
<clipPath id="clip0_253_781">
<rect width="32" height="32" fill="white" transform="translate(0 0.113281)"/>
</clipPath>
</defs>
</svg>
