<svg width="32" height="24" viewBox="0 0 32 24" fill="none" xmlns="http://www.w3.org/2000/svg">
<g clip-path="url(#clip0_253_784)">
<path d="M31.2933 4.20064C31.1097 3.50726 30.7517 2.87513 30.2548 2.3672C29.7579 1.85926 29.1396 1.49324 28.4613 1.30558C25.978 0.613281 15.9838 0.613281 15.9838 0.613281C15.9838 0.613281 5.98902 0.634237 3.50577 1.32654C2.82746 1.5142 2.20908 1.88024 1.7122 2.3882C1.21533 2.89617 0.857302 3.52832 0.673774 4.22173C-0.077351 8.73203 -0.368726 15.6047 0.694399 19.9346C0.877946 20.6279 1.23598 21.2601 1.73285 21.768C2.22973 22.2759 2.8481 22.642 3.5264 22.8296C6.00965 23.5219 16.0042 23.5219 16.0042 23.5219C16.0042 23.5219 25.9985 23.5219 28.4816 22.8296C29.16 22.642 29.7784 22.276 30.2753 21.768C30.7722 21.2601 31.1302 20.628 31.3138 19.9346C32.106 15.4179 32.3501 8.54943 31.2933 4.20064Z" fill="#FF0000"/>
<path d="M12.8026 16.9761L21.0936 12.0672L12.8026 7.1582V16.9761Z" fill="white"/>
</g>
<defs>
<clipPath id="clip0_253_784">
<rect width="32" height="23" fill="white" transform="translate(0 0.613281)"/>
</clipPath>
</defs>
</svg>
