<svg width="28" height="29" viewBox="0 0 28 29" fill="none" xmlns="http://www.w3.org/2000/svg">
<path d="M21.4375 0.113281H6.5625C2.93813 0.113281 0 3.05141 0 6.67578V21.5508C0 25.1751 2.93813 28.1133 6.5625 28.1133H21.4375C25.0619 28.1133 28 25.1751 28 21.5508V6.67578C28 3.05141 25.0619 0.113281 21.4375 0.113281Z" fill="white"/>
<path d="M21.4375 0.113281H6.5625C2.93813 0.113281 0 3.05141 0 6.67578V21.5508C0 25.1751 2.93813 28.1133 6.5625 28.1133H21.4375C25.0619 28.1133 28 25.1751 28 21.5508V6.67578C28 3.05141 25.0619 0.113281 21.4375 0.113281Z" fill="#0A66C2"/>
<path d="M20.2032 23.9226H23.4046C23.5206 23.9226 23.6319 23.8765 23.7139 23.7945C23.796 23.7125 23.8421 23.6012 23.8421 23.4852L23.8438 16.7212C23.8438 13.1859 23.082 10.4685 18.9505 10.4685C17.38 10.4101 15.899 11.2197 15.0998 12.5715C15.0959 12.5781 15.0899 12.5832 15.0828 12.5861C15.0757 12.5889 15.0679 12.5894 15.0605 12.5874C15.0532 12.5854 15.0466 12.5811 15.042 12.575C15.0373 12.569 15.0348 12.5616 15.0347 12.5539V11.2323C15.0347 11.1163 14.9886 11.005 14.9065 10.923C14.8245 10.8409 14.7132 10.7948 14.5972 10.7948H11.5591C11.443 10.7948 11.3318 10.8409 11.2497 10.923C11.1677 11.005 11.1216 11.1163 11.1216 11.2323V23.4845C11.1216 23.6006 11.1677 23.7118 11.2497 23.7939C11.3318 23.8759 11.443 23.922 11.5591 23.922H14.7603C14.8763 23.922 14.9876 23.8759 15.0696 23.7939C15.1517 23.7118 15.1978 23.6006 15.1978 23.4845V17.4281C15.1978 15.7156 15.5226 14.0572 17.6457 14.0572C19.7386 14.0572 19.7657 16.0167 19.7657 17.539V23.4851C19.7657 23.6011 19.8118 23.7124 19.8938 23.7944C19.9759 23.8765 20.0872 23.9226 20.2032 23.9226ZM4.15625 6.63509C4.15625 7.93272 5.22452 9.00044 6.52225 9.00044C7.81966 9.00033 8.88727 7.93195 8.88727 6.63455C8.88705 5.33714 7.81933 4.26953 6.52181 4.26953C5.22397 4.26953 4.15625 5.33747 4.15625 6.63509ZM4.91739 23.9226H8.12284C8.23888 23.9226 8.35016 23.8765 8.4322 23.7944C8.51425 23.7124 8.56034 23.6011 8.56034 23.4851V11.2323C8.56034 11.1163 8.51425 11.005 8.4322 10.923C8.35016 10.8409 8.23888 10.7948 8.12284 10.7948H4.91739C4.80136 10.7948 4.69008 10.8409 4.60803 10.923C4.52598 11.005 4.47989 11.1163 4.47989 11.2323V23.4851C4.47989 23.6011 4.52598 23.7124 4.60803 23.7944C4.69008 23.8765 4.80136 23.9226 4.91739 23.9226Z" fill="white"/>
</svg>
